<svg width="241.29" height="241.29" enable-background="new 0 0 241.291 276.129" version="1.1" viewBox="0 0 241.29 241.29" xml:space="preserve" xmlns="http://www.w3.org/2000/svg">
<rect x="135.3" y="110.27" width="33.96" height="31.814" fill="#578fff"/>
<rect x="85.255" y="55.576" width="41.824" height="131.91" fill="#8cff83"/>
<rect x="34.852" y="51.644" width="37.177" height="136.55" fill="#ff6464"/>
<path d="m6.45 7.228v228.4h228.39v-228.4zm58.974 160.36c0 3.421-1.264 6.354-3.763 8.806-2.509 2.445-5.48 3.668-8.901 3.668h-12.487v-117.81h12.487c3.415 0 6.386 1.223 8.901 3.681 2.5 2.445 3.763 5.372 3.763 8.793zm52.496-6.841c0 2.749-0.643 5.309-1.888 7.71-1.254 2.375-2.883 4.491-4.881 6.303-1.989 1.844-4.235 3.251-6.753 4.289-2.515 1.02-5.071 1.539-7.697 1.539h-3.918v-118.33h8.03v109.61c2.73-0.925 4.929-2.344 6.592-4.282 1.653-1.927 2.477-4.22 2.477-6.849v-98.486h8.046v98.493zm44.457-31.626h-16.595v-7.874h16.595zm38.629 50.947h-8.036v-68.907h-3.919v-8.039h11.955zm0-94.222h-8.036v-11.79h8.036zm-148.24-15.553h-4.447v101.74h4.447c1.242 0 2.338-0.425 3.253-1.273 0.906-0.861 1.362-1.913 1.362-3.167v-92.842c0-1.248-0.456-2.312-1.362-3.162-0.909-0.868-2.005-1.292-3.253-1.292z"/>

</svg>
