<svg width="127.23" height="127.23" version="1.1" viewBox="0 0 33.663 33.663" >
 <g transform="translate(-63.07 -84.598)">
  <path d="m86.169 90.238-4.1543 7.657-2.7e-4 1.4e-4c1.1812 0.69915 1.9495 1.9826 1.9495 3.496 0 0.0763-2e-3 0.15178-6e-3 0.22683l2.6e-4 -1.4e-4 8.7247 0.65424c0.0202-0.29129 0.0314-0.58491 0.0314-0.88093 0-4.7549-2.6527-8.9428-6.5453-11.153zm-19.067 10.593c-8e-3 0.18576-0.0131 0.37229-0.0131 0.5599 0 4.1352 2.0062 7.8414 5.0893 10.191l1.5817 1.0328c2e-3 1e-3 5e-3 3e-3 7e-3 4e-3l4.2096-7.6275 7.9e-4 -5.3e-4c-1.2875-0.67011-2.1384-2.0076-2.1384-3.6003 0-0.0756 2e-3 -0.1506 6e-3 -0.22506l-2.7e-4 1.4e-4z" style="-inkscape-stroke:none;color:#000000;fill:#fff;stroke-width:.26458"/>
 </g>
</svg>
